<?xml version="1.0" encoding="utf-8"?>
<svg xmlns="http://www.w3.org/2000/svg" xmlns:xlink="http://www.w3.org/1999/xlink" style="margin: auto; background: none; display: block; shape-rendering: auto;" width="40px" height="40px" viewBox="0 0 100 100" preserveAspectRatio="xMidYMid">
<g transform="rotate(0 50 50)">
  <rect x="47" y="24" rx="3" ry="6" width="6" height="12" fill="#431e44">
    <animate attributeName="opacity" values="1;0" keyTimes="0;1" dur="1s" begin="-0.9777777777777777s" repeatCount="indefinite"></animate>
  </rect>
</g><g transform="rotate(8 50 50)">
  <rect x="47" y="24" rx="3" ry="6" width="6" height="12" fill="#431e44">
    <animate attributeName="opacity" values="1;0" keyTimes="0;1" dur="1s" begin="-0.9555555555555556s" repeatCount="indefinite"></animate>
  </rect>
</g><g transform="rotate(16 50 50)">
  <rect x="47" y="24" rx="3" ry="6" width="6" height="12" fill="#431e44">
    <animate attributeName="opacity" values="1;0" keyTimes="0;1" dur="1s" begin="-0.9333333333333333s" repeatCount="indefinite"></animate>
  </rect>
</g><g transform="rotate(24 50 50)">
  <rect x="47" y="24" rx="3" ry="6" width="6" height="12" fill="#431e44">
    <animate attributeName="opacity" values="1;0" keyTimes="0;1" dur="1s" begin="-0.9111111111111111s" repeatCount="indefinite"></animate>
  </rect>
</g><g transform="rotate(32 50 50)">
  <rect x="47" y="24" rx="3" ry="6" width="6" height="12" fill="#431e44">
    <animate attributeName="opacity" values="1;0" keyTimes="0;1" dur="1s" begin="-0.8888888888888888s" repeatCount="indefinite"></animate>
  </rect>
</g><g transform="rotate(40 50 50)">
  <rect x="47" y="24" rx="3" ry="6" width="6" height="12" fill="#431e44">
    <animate attributeName="opacity" values="1;0" keyTimes="0;1" dur="1s" begin="-0.8666666666666667s" repeatCount="indefinite"></animate>
  </rect>
</g><g transform="rotate(48 50 50)">
  <rect x="47" y="24" rx="3" ry="6" width="6" height="12" fill="#431e44">
    <animate attributeName="opacity" values="1;0" keyTimes="0;1" dur="1s" begin="-0.8444444444444444s" repeatCount="indefinite"></animate>
  </rect>
</g><g transform="rotate(56 50 50)">
  <rect x="47" y="24" rx="3" ry="6" width="6" height="12" fill="#431e44">
    <animate attributeName="opacity" values="1;0" keyTimes="0;1" dur="1s" begin="-0.8222222222222222s" repeatCount="indefinite"></animate>
  </rect>
</g><g transform="rotate(64 50 50)">
  <rect x="47" y="24" rx="3" ry="6" width="6" height="12" fill="#431e44">
    <animate attributeName="opacity" values="1;0" keyTimes="0;1" dur="1s" begin="-0.8s" repeatCount="indefinite"></animate>
  </rect>
</g><g transform="rotate(72 50 50)">
  <rect x="47" y="24" rx="3" ry="6" width="6" height="12" fill="#431e44">
    <animate attributeName="opacity" values="1;0" keyTimes="0;1" dur="1s" begin="-0.7777777777777778s" repeatCount="indefinite"></animate>
  </rect>
</g><g transform="rotate(80 50 50)">
  <rect x="47" y="24" rx="3" ry="6" width="6" height="12" fill="#431e44">
    <animate attributeName="opacity" values="1;0" keyTimes="0;1" dur="1s" begin="-0.7555555555555555s" repeatCount="indefinite"></animate>
  </rect>
</g><g transform="rotate(88 50 50)">
  <rect x="47" y="24" rx="3" ry="6" width="6" height="12" fill="#431e44">
    <animate attributeName="opacity" values="1;0" keyTimes="0;1" dur="1s" begin="-0.7333333333333333s" repeatCount="indefinite"></animate>
  </rect>
</g><g transform="rotate(96 50 50)">
  <rect x="47" y="24" rx="3" ry="6" width="6" height="12" fill="#431e44">
    <animate attributeName="opacity" values="1;0" keyTimes="0;1" dur="1s" begin="-0.7111111111111111s" repeatCount="indefinite"></animate>
  </rect>
</g><g transform="rotate(104 50 50)">
  <rect x="47" y="24" rx="3" ry="6" width="6" height="12" fill="#431e44">
    <animate attributeName="opacity" values="1;0" keyTimes="0;1" dur="1s" begin="-0.6888888888888889s" repeatCount="indefinite"></animate>
  </rect>
</g><g transform="rotate(112 50 50)">
  <rect x="47" y="24" rx="3" ry="6" width="6" height="12" fill="#431e44">
    <animate attributeName="opacity" values="1;0" keyTimes="0;1" dur="1s" begin="-0.6666666666666666s" repeatCount="indefinite"></animate>
  </rect>
</g><g transform="rotate(120 50 50)">
  <rect x="47" y="24" rx="3" ry="6" width="6" height="12" fill="#431e44">
    <animate attributeName="opacity" values="1;0" keyTimes="0;1" dur="1s" begin="-0.6444444444444445s" repeatCount="indefinite"></animate>
  </rect>
</g><g transform="rotate(128 50 50)">
  <rect x="47" y="24" rx="3" ry="6" width="6" height="12" fill="#431e44">
    <animate attributeName="opacity" values="1;0" keyTimes="0;1" dur="1s" begin="-0.6222222222222222s" repeatCount="indefinite"></animate>
  </rect>
</g><g transform="rotate(136 50 50)">
  <rect x="47" y="24" rx="3" ry="6" width="6" height="12" fill="#431e44">
    <animate attributeName="opacity" values="1;0" keyTimes="0;1" dur="1s" begin="-0.6s" repeatCount="indefinite"></animate>
  </rect>
</g><g transform="rotate(144 50 50)">
  <rect x="47" y="24" rx="3" ry="6" width="6" height="12" fill="#431e44">
    <animate attributeName="opacity" values="1;0" keyTimes="0;1" dur="1s" begin="-0.5777777777777777s" repeatCount="indefinite"></animate>
  </rect>
</g><g transform="rotate(152 50 50)">
  <rect x="47" y="24" rx="3" ry="6" width="6" height="12" fill="#431e44">
    <animate attributeName="opacity" values="1;0" keyTimes="0;1" dur="1s" begin="-0.5555555555555556s" repeatCount="indefinite"></animate>
  </rect>
</g><g transform="rotate(160 50 50)">
  <rect x="47" y="24" rx="3" ry="6" width="6" height="12" fill="#431e44">
    <animate attributeName="opacity" values="1;0" keyTimes="0;1" dur="1s" begin="-0.5333333333333333s" repeatCount="indefinite"></animate>
  </rect>
</g><g transform="rotate(168 50 50)">
  <rect x="47" y="24" rx="3" ry="6" width="6" height="12" fill="#431e44">
    <animate attributeName="opacity" values="1;0" keyTimes="0;1" dur="1s" begin="-0.5111111111111111s" repeatCount="indefinite"></animate>
  </rect>
</g><g transform="rotate(176 50 50)">
  <rect x="47" y="24" rx="3" ry="6" width="6" height="12" fill="#431e44">
    <animate attributeName="opacity" values="1;0" keyTimes="0;1" dur="1s" begin="-0.4888888888888889s" repeatCount="indefinite"></animate>
  </rect>
</g><g transform="rotate(184 50 50)">
  <rect x="47" y="24" rx="3" ry="6" width="6" height="12" fill="#431e44">
    <animate attributeName="opacity" values="1;0" keyTimes="0;1" dur="1s" begin="-0.4666666666666667s" repeatCount="indefinite"></animate>
  </rect>
</g><g transform="rotate(192 50 50)">
  <rect x="47" y="24" rx="3" ry="6" width="6" height="12" fill="#431e44">
    <animate attributeName="opacity" values="1;0" keyTimes="0;1" dur="1s" begin="-0.4444444444444444s" repeatCount="indefinite"></animate>
  </rect>
</g><g transform="rotate(200 50 50)">
  <rect x="47" y="24" rx="3" ry="6" width="6" height="12" fill="#431e44">
    <animate attributeName="opacity" values="1;0" keyTimes="0;1" dur="1s" begin="-0.4222222222222222s" repeatCount="indefinite"></animate>
  </rect>
</g><g transform="rotate(208 50 50)">
  <rect x="47" y="24" rx="3" ry="6" width="6" height="12" fill="#431e44">
    <animate attributeName="opacity" values="1;0" keyTimes="0;1" dur="1s" begin="-0.4s" repeatCount="indefinite"></animate>
  </rect>
</g><g transform="rotate(216 50 50)">
  <rect x="47" y="24" rx="3" ry="6" width="6" height="12" fill="#431e44">
    <animate attributeName="opacity" values="1;0" keyTimes="0;1" dur="1s" begin="-0.37777777777777777s" repeatCount="indefinite"></animate>
  </rect>
</g><g transform="rotate(224 50 50)">
  <rect x="47" y="24" rx="3" ry="6" width="6" height="12" fill="#431e44">
    <animate attributeName="opacity" values="1;0" keyTimes="0;1" dur="1s" begin="-0.35555555555555557s" repeatCount="indefinite"></animate>
  </rect>
</g><g transform="rotate(232 50 50)">
  <rect x="47" y="24" rx="3" ry="6" width="6" height="12" fill="#431e44">
    <animate attributeName="opacity" values="1;0" keyTimes="0;1" dur="1s" begin="-0.3333333333333333s" repeatCount="indefinite"></animate>
  </rect>
</g><g transform="rotate(240 50 50)">
  <rect x="47" y="24" rx="3" ry="6" width="6" height="12" fill="#431e44">
    <animate attributeName="opacity" values="1;0" keyTimes="0;1" dur="1s" begin="-0.3111111111111111s" repeatCount="indefinite"></animate>
  </rect>
</g><g transform="rotate(248 50 50)">
  <rect x="47" y="24" rx="3" ry="6" width="6" height="12" fill="#431e44">
    <animate attributeName="opacity" values="1;0" keyTimes="0;1" dur="1s" begin="-0.28888888888888886s" repeatCount="indefinite"></animate>
  </rect>
</g><g transform="rotate(256 50 50)">
  <rect x="47" y="24" rx="3" ry="6" width="6" height="12" fill="#431e44">
    <animate attributeName="opacity" values="1;0" keyTimes="0;1" dur="1s" begin="-0.26666666666666666s" repeatCount="indefinite"></animate>
  </rect>
</g><g transform="rotate(264 50 50)">
  <rect x="47" y="24" rx="3" ry="6" width="6" height="12" fill="#431e44">
    <animate attributeName="opacity" values="1;0" keyTimes="0;1" dur="1s" begin="-0.24444444444444444s" repeatCount="indefinite"></animate>
  </rect>
</g><g transform="rotate(272 50 50)">
  <rect x="47" y="24" rx="3" ry="6" width="6" height="12" fill="#431e44">
    <animate attributeName="opacity" values="1;0" keyTimes="0;1" dur="1s" begin="-0.2222222222222222s" repeatCount="indefinite"></animate>
  </rect>
</g><g transform="rotate(280 50 50)">
  <rect x="47" y="24" rx="3" ry="6" width="6" height="12" fill="#431e44">
    <animate attributeName="opacity" values="1;0" keyTimes="0;1" dur="1s" begin="-0.2s" repeatCount="indefinite"></animate>
  </rect>
</g><g transform="rotate(288 50 50)">
  <rect x="47" y="24" rx="3" ry="6" width="6" height="12" fill="#431e44">
    <animate attributeName="opacity" values="1;0" keyTimes="0;1" dur="1s" begin="-0.17777777777777778s" repeatCount="indefinite"></animate>
  </rect>
</g><g transform="rotate(296 50 50)">
  <rect x="47" y="24" rx="3" ry="6" width="6" height="12" fill="#431e44">
    <animate attributeName="opacity" values="1;0" keyTimes="0;1" dur="1s" begin="-0.15555555555555556s" repeatCount="indefinite"></animate>
  </rect>
</g><g transform="rotate(304 50 50)">
  <rect x="47" y="24" rx="3" ry="6" width="6" height="12" fill="#431e44">
    <animate attributeName="opacity" values="1;0" keyTimes="0;1" dur="1s" begin="-0.13333333333333333s" repeatCount="indefinite"></animate>
  </rect>
</g><g transform="rotate(312 50 50)">
  <rect x="47" y="24" rx="3" ry="6" width="6" height="12" fill="#431e44">
    <animate attributeName="opacity" values="1;0" keyTimes="0;1" dur="1s" begin="-0.1111111111111111s" repeatCount="indefinite"></animate>
  </rect>
</g><g transform="rotate(320 50 50)">
  <rect x="47" y="24" rx="3" ry="6" width="6" height="12" fill="#431e44">
    <animate attributeName="opacity" values="1;0" keyTimes="0;1" dur="1s" begin="-0.08888888888888889s" repeatCount="indefinite"></animate>
  </rect>
</g><g transform="rotate(328 50 50)">
  <rect x="47" y="24" rx="3" ry="6" width="6" height="12" fill="#431e44">
    <animate attributeName="opacity" values="1;0" keyTimes="0;1" dur="1s" begin="-0.06666666666666667s" repeatCount="indefinite"></animate>
  </rect>
</g><g transform="rotate(336 50 50)">
  <rect x="47" y="24" rx="3" ry="6" width="6" height="12" fill="#431e44">
    <animate attributeName="opacity" values="1;0" keyTimes="0;1" dur="1s" begin="-0.044444444444444446s" repeatCount="indefinite"></animate>
  </rect>
</g><g transform="rotate(344 50 50)">
  <rect x="47" y="24" rx="3" ry="6" width="6" height="12" fill="#431e44">
    <animate attributeName="opacity" values="1;0" keyTimes="0;1" dur="1s" begin="-0.022222222222222223s" repeatCount="indefinite"></animate>
  </rect>
</g><g transform="rotate(352 50 50)">
  <rect x="47" y="24" rx="3" ry="6" width="6" height="12" fill="#431e44">
    <animate attributeName="opacity" values="1;0" keyTimes="0;1" dur="1s" begin="0s" repeatCount="indefinite"></animate>
  </rect>
</g>
<!-- [ldio] generated by https://loading.io/ --></svg>